<svg fill="none" height="64" viewBox="0 0 64 64" width="64" xmlns="http://www.w3.org/2000/svg"><path d="m49.2784 17.8029c6.3633 3.6742 8.5854 11.7671 5.0285 18.166l-.1096.1933-7.2035 12.4778h-12.1925l3.687-6.3862c-.9048-.2885-1.7926-.6779-2.6487-1.1722-1.4809-.8551-2.7376-1.9496-3.7493-3.2063l-6.2146 10.7647h-12.1925l3.6871-6.3862c-.9048-.2885-1.7926-.6779-2.6487-1.1722-6.42763-3.7114-8.62991-11.9311-4.91891-18.3594 3.71101-6.4282 11.93001-8.6307 18.35771-4.9193 1.5261.8811 2.814 2.0164 3.841 3.3216 4.0631-5.1724 11.415-6.7064 17.277-3.3216zm-30.3313 10.1993c-.7952 1.3775-.3233 3.1389 1.054 3.9342 1.3774.7953 3.1386.3233 3.9338-1.0542.7952-1.3774.3233-3.1388-1.0541-3.9341-1.3773-.7953-3.1385-.3233-3.9337 1.0541zm21.118 0c-.7952 1.3775-.3233 3.1389 1.0541 3.9342 1.3773.7953 3.1385.3233 3.9337-1.0542.7953-1.3774.3234-3.1388-1.054-3.9341s-3.1386-.3233-3.9338 1.0541z" fill="#222"/></svg>
