<svg fill="none" height="42" viewBox="0 0 42 42" width="42" xmlns="http://www.w3.org/2000/svg"><path d="m18.7473 40.9953c8.4664 0 15.3298-8.783 15.3298-19.6175 0-10.8344-6.8634-19.61749-15.3298-19.61749-8.4665 0-15.32985 8.78309-15.32985 19.61749 0 10.8345 6.86335 19.6175 15.32985 19.6175z" fill="#fff"/><path d="m36.1043 18.5698-.8978-.6626c-1.8773-9.19442-8.0805-17.229153-15.4264-17.311985h-.0816c-1.1427 0-2.2038.165665-3.2649.496995-.4897-.165666-1.061-.248498-1.5508-.331331-.4897-.082832-1.061-.082832-1.6324-.082832-.8978 0-1.8773.165665-3.0199.496993-.65299.2485-1.38758.497-2.04055.82832-1.30594.66266-2.53025 1.49099-3.59132 2.48497-.65297.66266-1.22432 1.40815-1.71405 2.07081-.89783 1.32532-1.46918 2.73347-1.71404 4.30726-.489729 2.7335.08162 5.6326 1.63242 8.7803l.65297 1.3253c-.08162.9111-.16324 1.8223-.16324 2.6506-.08162 11.4309 7.10101 18.1403 16.16091 18.2231h.1633c1.1427 0 2.2037-.0828 3.2648-.3313 1.1427.2485 2.367.4141 3.5097.4141 1.5508 0 3.1832-.2485 4.734-.6626 4.8157-1.491 8.407-5.4669 9.3864-10.5197.8163-4.7215-.8162-9.3601-4.4075-12.1764zm-32.48513.5799c-1.5508-3.1477-1.87728-5.7983-1.5508-8.1176.57135 2.1536 1.79567 3.5618 2.28539 4.2244.08162.0829.16324 0 .08162-.0828-1.38755-2.8991-1.30593-6.37808-.81621-8.03473.48973-.66266.97946-1.32532 1.5508-1.90514-.65297 3.31329.73459 6.70937 1.38756 7.95187 0 .0829.16324 0 .16324-.0828-1.14269-5.30127.24487-8.2004 1.87729-10.18838.65297-.33133 1.30593-.57983 1.87724-.74549-2.93832 2.89913-1.3059 7.45491-.73455 8.94587 0 .0829.16324 0 .16324 0-.81621-5.38408 2.28531-8.61454 4.81561-9.2772.8978.08283 1.7957.33133 2.5302.57983-4.3259.82832-4.081 5.05277-3.9178 6.37809 0 .08283.0817.08283.1633 0 .8162-4.72145 4.2443-5.6326 5.7135-5.46694.9794.57983 1.7956 1.24249 2.4486 1.90515-1.9589-.99399-4.734.74549-5.2238 2.89913 0 .08283.0817.08283.0817.08283 2.7751-2.98197 6.1215-1.82231 6.1215-1.82231.2449.49699.7346.74549 1.2244.91115.4897.16567.9794.497 1.1426 1.24249.4082 1.32532.1633 2.73348-.1632 3.56178-.0816.2485-.0816.5798 0 .8283.653 2.4022 4.2443 7.7034.0816 8.8631-.3265.0828-.7346.0828-1.1427.0828-2.8567 0-8.4886-1.6566-12.1615-6.0467-.0816-.0829-.1632 0-.1632.0828.4897 1.1596 2.1221 4.4729 7.0194 6.7922.1632.0829.0816.2485-.0817.2485-1.3875-.1656-3.0199-.5798-4.734-1.4081-2.4486-1.0768-4.32585-2.4021-5.71341-3.7275-.48973-.497-1.1427-.7455-1.79566-.7455-1.1427.1657-2.20377.9112-2.53026 2.0709zm20.65013 14.1643c-.653 0-1.306-.0828-1.9589-.1657-1.959-.3313-6.6114-1.7395-7.5908-8.2832-.0816-.5798-.5714-.994-1.0611-.994s-.8978.3313-1.0611.8283c-1.2243 4.1416-.5713 8.2004 1.7957 11.5137 1.3059 1.8223 3.1016 3.2305 5.1421 4.2245h-.0816c-8.8966-.0829-14.77335-6.7923-14.69173-16.7322 0-1.7394.24486-3.3961.57134-5.1356.24487-.1656.57135-.2485.81622-.2485.32648 0 .73458.0829 1.14269.497 1.5508 1.491 3.50968 2.8163 5.95828 3.8931 1.6324.7455 3.2649 1.2425 4.9789 1.491h.0816.0816c.4898 0 .9795-.3313 1.0611-.9111.0816-.4142 0-.7455-.3265-1.0768 1.7957.5798 3.3465.8283 4.5708.8283.5714 0 1.0611-.0829 1.3876-.1657 1.1427-.3313 1.9589-.9111 2.367-1.8223.8978-1.9051-.1633-4.3901-1.0611-6.4609-.3265-.6627-.5713-1.3253-.7346-1.8223 0-.0829 0-.1657 0-.2485.3265-.994.5714-2.56783.1633-4.14165-.2449-.91115-.8979-1.57381-1.7957-1.90514-.2449-.08283-.4897-.2485-.653-.49699-.3265-.57983-.7346-.99399-1.1427-1.40815-.6529-.57983-1.5508-1.40815-2.6118-2.07081-.2449-.16567-.4898-.2485-.7346-.41416h.7346.0816c3.7545 0 7.4275 2.40213 10.2842 6.79225 2.6935 4.14165 4.3259 9.36005 4.3259 14.49565-.4081 2.8991-1.3875 5.3013-3.0199 7.0408-1.7957 1.8223-4.2443 2.8991-7.0194 2.8991z" fill="#052449"/><g fill="#00b8ea"><path d="m3.61913 19.1498c-1.5508-3.1476-1.87729-5.7982-1.5508-8.1175.57135 2.1536 1.79566 3.5618 2.28539 4.2244.08162.0829.16324 0 .08162-.0828-1.38756-2.8991-1.30594-6.37809-.81621-8.03474.48973-.66266.97945-1.32532 1.5508-1.90514-.65297 3.31329.73459 6.70938 1.38756 7.95188 0 .0829.16324 0 .16324-.0828-1.1427-5.30128.24486-8.20041 1.87728-10.18839.65297-.33133 1.30594-.57983 1.87729-.74549-2.93836 2.89913-1.30594 7.45491-.73459 8.94588 0 .0828.16324 0 .16324 0-.81621-5.38409 2.28535-8.61455 4.81565-9.27721.8978.08283 1.7956.33133 2.5302.57983-4.3259.82832-4.081 5.05277-3.9178 6.37809 0 .08283.0816.08283.1632 0 .8162-4.72145 4.2443-5.6326 5.7135-5.46694.9795.57983 1.7957 1.24249 2.4486 1.90515-1.9589-.99399-4.734.74549-5.2237 2.89913 0 .08283.0816.08283.0816.08283 2.7751-2.98196 6.1216-1.82231 6.1216-1.82231.2449.49699.7346.74549 1.2243.91116.4897.16566.9795.49699 1.1427 1.24248.4081 1.32532.1632 2.73349-.1632 3.56179-.0817.2485-.0817.5798 0 .8283.6529 2.4022 4.2443 7.7034.0816 8.8631-.3265.0828-.7346.0828-1.1427.0828-2.8567 0-8.4886-1.6566-12.1615-6.0467-.0817-.0829-.1633 0-.1633.0828.4897 1.1596 2.1222 4.4729 7.0194 6.7922.1633.0829.0816.2485-.0816.2485-1.3876-.1656-3.02-.5798-4.734-1.4081-2.4487-1.0768-4.3259-2.4022-5.71345-3.7275-.48973-.497-1.1427-.7455-1.79567-.7455-1.14269.1657-2.20377.9112-2.53025 2.0708z"/><path d="m15.2096 29.2553c-.9794-1.7395-1.3059-3.479-1.4691-4.3073 0-.1657-.2449-.1657-.2449 0-.5713 1.8223-.653 3.5618-.4897 5.2184.8162.497 2.0405-.0828 2.2037-.9111z"/><path d="m20.5153 33.728c-1.0611-.3314-1.9589-.8283-2.6935-1.4082-.1633 1.491-1.306 2.5678-3.1016 2.5678.7346 1.2425 1.7956 2.3193 2.9383 3.1477 2.2038-.497 3.2649-2.5678 2.8568-4.3073z"/><path d="m29.6562 32.8999c-1.2243.6627-2.6119 1.1597-4.0811 1.3253 1.0611 2.0708.9795 4.8043-.4897 6.7094 1.8773.1657 3.7547 0 5.7136-.5798.653-.1657 1.2242-.4142 1.8772-.7455.4081-2.485-1.306-5.5497-3.02-6.7094z"/><path d="m39.6145 26.9358c-.9795-1.3254-3.1832-1.9052-4.734-1.0769-.4082 1.4082-.8979 2.5679-1.5508 3.6447 2.2037.1656 4.5707 1.6566 5.2237 4.1416.8978-2.1536 1.3059-4.473 1.0611-6.7094z"/></g><path d="m18.2297 16.8302c-1.061 0-4.2443-.3313-6.0399-3.5618-.1633-.3313-.1633-.8283 0-1.2425.3265-.6627.9794-1.5738 2.367-1.6566 2.1221-.1657 4.1627 1.2424 3.9994 6.1296 0 .1656-.1632.3313-.3265.3313z" fill="#fff"/><path d="m17.2502 11.0321c-.7346-.6627-1.6324-.994-2.7751-.9112-1.4692.1657-2.2038 1.1597-2.5303 1.8223-.2448.497-.2448.994 0 1.4082 1.8773 3.3961 5.2238 3.6446 6.2032 3.7274.3265 0 .5714-.2485.5714-.5798.1632-2.5678-.4081-4.4729-1.4692-5.4669zm.9795 5.5497c-.8979 0-4.0811-.2485-5.7951-3.4789-.1633-.3314-.1633-.6627 0-.994.3265-.6627.9794-1.4082 2.1221-1.5738h.3265.2449c-.4081.4141-.653.994-.7346 1.5738-.2449 1.7395.8978 3.3961 2.6119 3.6446.4081.0828.8162 0 1.2243-.0828v.6626c.0816.1657 0 .2485 0 .2485z" fill="#052449"/><path d="m24.0478 20.4085c.2047-.0957.2484-.4427.0975-.7752-.1508-.3324-.4391-.5243-.6438-.4286s-.2484.4427-.0975.7751c.1508.3324.4391.5244.6438.4287z" fill="#052449"/><path d="m26.1982 19.5575c.1764-.0379.2589-.3588.1842-.7169-.0747-.358-.2782-.6175-.4546-.5796s-.2589.3588-.1842.7169c.0747.358.2782.6175.4546.5796z" fill="#052449"/><path d="m16.5159 13.2685c.4508 0 .8162-.3709.8162-.8284 0-.4574-.3654-.8283-.8162-.8283s-.8162.3709-.8162.8283c0 .4575.3654.8284.8162.8284z" fill="#fff"/></svg>