<svg fill="none" height="48" viewBox="0 0 48 48" width="48" xmlns="http://www.w3.org/2000/svg" xmlns:xlink="http://www.w3.org/1999/xlink"><linearGradient id="a" gradientUnits="userSpaceOnUse" x1="37.5041" x2="11.0507" y1="-.866711" y2="45.3798"><stop offset="0" stop-color="#9da4ff"/><stop offset="1" stop-color="#7872f2"/></linearGradient><path d="m40.3424 10.9763c-.2511-.3764-.3777-.821-.3622-1.27198s.1723-.88599.4487-1.24462c.9222-1.19795 1.8331-2.66098 2.0403-3.96609.4554-2.83132-2.3306-4.768115-5.4137-3.575805-.3973.150025-.8072.322615-1.2182.498585-.8404.35623-1.7464.53519-2.6604.52548-.9141-.00971-1.816-.20788-2.6485-.58188-2.0568-.896851-4.2794-1.35999-6.5265-1.35999-2.2472 0-4.4698.463139-6.5266 1.35999-.8328.37417-1.7351.57252-2.6495.58242-.9143.0099-1.8208-.16885-2.6617-.52489-.4121-.17936-.822-.34856-1.2182-.501971-3.08422-1.193438-5.86675.743361-5.4159 3.574671.20835 1.30737 1.12258 2.77379 2.04705 3.96948.27576.3568.43221.78999.44752 1.23912.01531.44908-.11129.89178-.36213 1.26618-12.8789 19.1221-5.14951 34.3356 11.22576 36.9233 3.5602.564 7.167-1.0367 8.9442-4.1443 1.3104-2.2888 1.5939-5.0953.7378-7.5408-.0429-.1237-.1309-.2271-.2468-.2897-.1159-.0627-.2513-.08-.3794-.0487-.7908.1919-1.617.19-2.4069-.0057-.3201-.0824-.6165-.2374-.8658-.4528-.2493-.2153-.4448-.485-.571-.788-.0926-.2324-.0896-.4914.0083-.7217s.2829-.4134.5155-.5101c.3601-.1512.6881-.3686.9666-.6407.0426-.0417.0758-.0919.0974-.1472.0216-.0554.0311-.1147.0279-.174-.0032-.0592-.0191-.1172-.0466-.1699-.0275-.0528-.066-.0991-.1129-.136-.3222-.2482-.9268-.5584-1.9423-.5584-1.0156 0-1.6213.3102-1.9435.5584-.0469.0369-.0853.0832-.1128.136-.0275.0527-.0434.1107-.0466.1699-.0033.0593.0062.1186.0278.174.0216.0553.0549.1055.0975.1472.2765.2727.6025.4913.9609.6441.2329.0963.4184.2793.5166.5096.0981.2304.1011.4897.0083.7222-.1264.303-.3221.5728-.5716.7881-.2495.2154-.5461.3703-.8664.4527-2.3351.5798-4.5541-.6023-6.1856-2.4049-1.3662-1.5059-2.318-3.4427-2.5889-5.1415-.2562-1.6119 1.2728-2.5538 3.0842-2.0304.5383.1551 1.0652.347 1.5768.5742.3295.1478.69.2154 1.0512.1972.3613-.0182.7129-.1218 1.0255-.3021 1.1715-.6881 2.6186-1.1957 3.9666-1.1957s2.7951.5076 3.9666 1.1957c.3124.1802.6638.2838 1.0249.3021.3611.0182.7213-.0494 1.0506-.1972.51-.2283 1.0354-.4213 1.5723-.5776 1.8102-.5177 3.3404.4241 3.0831 2.0304-.1753 1.0999-.6376 2.2989-1.3104 3.4157-.1704.2768-.2692.5909-.2876.9146-.0185.3237.0439.6469.1817.941 2.7768 5.8216 1.3981 10.2649-1.997 12.7127-.5692.4094-.1628 1.2927.5203 1.128 14.7632-3.5995 21.1753-18.2547 8.9237-36.4484zm-18.3119 25.6837c.3016-.1204.5919-.2668.8676-.4376.2139-.1289.4595-.1971.7098-.1971.2504 0 .496.0682.7099.1971.2775.1719.5697.3195.8732.441.0478.0191.0887.0519.1175.0942.0289.0424.0443.0922.0443.1433 0 .051-.0154.1009-.0443.1432-.0288.0423-.0697.0751-.1175.0942-.5084.1965-1.0482.3012-1.5939.3091-.5409-.0152-1.0752-.1212-1.5802-.3136-.0474-.0202-.0876-.054-.1153-.097-.0277-.0431-.0418-.0934-.0403-.1445.0015-.051.0184-.1005.0486-.1419.0301-.0414.0722-.0729.1206-.0904zm3.7298-17.5067c-.6872.2619-1.4156.4016-2.1518.4128-.7285-.02-1.4485-.1607-2.1302-.4162-.0695-.0253-.1297-.071-.1724-.1309-.0428-.06-.0662-.1314-.067-.2048-.0009-.0734.0208-.1453.0621-.2063.0414-.0609.1004-.1079.1694-.1348.4433-.179.8697-.3968 1.274-.6509.2595-.1587.5585-.2428.8635-.2428s.604.0841.8636.2428c.4085.2591.8399.4811 1.2888.6633.0664.0276.1231.074.1629.1334.0399.0594.0612.1291.0612.2005 0 .0713-.0213.1411-.0612.2005-.0398.0594-.0965.1058-.1629.1334zm5.1814-2.2245c-.4122 1.3762-2.6937 1.0931-4.6042.5855-.9518-.2911-1.6224-.9431-1.989-1.9256-.1335-.3775-.1161-.7913.0486-1.1565.1648-.3651.4643-.654.8372-.8073.5522-.2408 1.0542-.5817 1.4801-1.0051.0651-.0635.1159-.14.1491-.2244.0331-.0844.0479-.1749.0433-.2653-.0047-.0905-.0286-.1789-.0702-.2596-.0416-.0806-.0999-.1517-.1712-.2084-.5009-.3914-1.4516-.8877-3.0592-.8877s-2.5594.4963-3.0592.8877c-.0712.0567-.1296.1278-.1712.2084-.0416.0807-.0655.1691-.0701.2596-.0046.0904.0101.1809.0433.2653.0331.0844.0839.1609.1491.2244.426.4233.9279.7641 1.48 1.0051.3731.153.6728.4419.8376.8072.1647.3652.182.7792.0482 1.1566-.3655.9825-1.0372 1.6345-1.9878 1.9256-1.9116.5076-4.1932.7896-4.6053-.5855-.7298-2.4387 1.159-8.3123 7.3366-8.3123s8.0675 5.8736 7.3343 8.3123z" fill="url(#a)"/></svg>